<svg xmlns="http://www.w3.org/2000/svg" id="svg8" width="24" height="24" version="1.1" viewBox="0 0 24 24"><metadata id="metadata5"/><g id="layer1" transform="translate(0,-1098.5197)"><path style="fill:#000;fill-opacity:1;fill-rule:evenodd;stroke:none;stroke-width:2;stroke-linecap:butt;stroke-linejoin:miter;stroke-miterlimit:4;stroke-dasharray:none;stroke-opacity:1" id="path10" d="M 4 2 C 2.9 2 2 2.9 2 4 L 2 11 C 2 11.55 2.2198438 12.049922 2.5898438 12.419922 L 11.589844 21.419922 C 11.949844 21.779922 12.45 22 13 22 C 13.55 22 14.050156 21.780156 14.410156 21.410156 L 17.945312 17.875 L 16.535156 16.464844 L 13 20.009766 L 4 11 L 4 4 L 11 4 L 11 3.9902344 L 18.46875 11.458984 L 19.878906 10.048828 L 12.410156 2.5800781 C 12.050156 2.2200781 11.55 2 11 2 L 4 2 z" transform="translate(0,1098.5197)"/><path id="path12" d="m 6.5,1105.0197 m -1.5,0 a 1.5,1.5 0 1 1 3.0000001,0 1.5,1.5 0 1 1 -3.0000001,0" style="fill:#000;fill-opacity:1;fill-rule:evenodd;stroke:none;stroke-width:1px;stroke-linecap:butt;stroke-linejoin:miter;stroke-opacity:1"/><path style="fill:#000;fill-opacity:1;fill-rule:evenodd;stroke:none;stroke-width:1px;stroke-linecap:butt;stroke-linejoin:miter;stroke-opacity:1" id="path822" d="m 20,1110.5197 h 2 v 6 h -2 z m 0,8 h 2 v 2 h -2 z"/></g></svg>