<svg xmlns="http://www.w3.org/2000/svg" id="svg8" width="24" height="24" version="1.1" viewBox="0 0 24 24"><metadata id="metadata5"/><g id="layer1" transform="translate(0,-1098.5197)"><path style="fill:#000;fill-opacity:1;fill-rule:evenodd;stroke:none;stroke-width:2;stroke-linecap:butt;stroke-linejoin:miter;stroke-miterlimit:4;stroke-dasharray:none;stroke-opacity:1" id="path10" d="M 4 2 C 2.9 2 2 2.9 2 4 L 2 11 C 2 11.55 2.2198438 12.049922 2.5898438 12.419922 L 9.3164062 19.146484 L 10.728516 17.736328 L 4 11 L 4 4 L 11 4 L 11 3.9902344 L 17.736328 10.726562 L 19.933594 12.925781 L 21.34375 11.515625 L 12.410156 2.5800781 C 12.050156 2.2200781 11.55 2 11 2 L 4 2 z" transform="translate(0,1098.5197)"/><path id="path12" d="m 6.5,1105.0197 m -1.5,0 a 1.5,1.5 0 1 1 3.0000001,0 1.5,1.5 0 1 1 -3.0000001,0" style="fill:#000;fill-opacity:1;fill-rule:evenodd;stroke:none;stroke-width:1px;stroke-linecap:butt;stroke-linejoin:miter;stroke-opacity:1"/><path style="fill:#000;fill-opacity:1;fill-rule:evenodd;stroke:none;stroke-width:1px;stroke-linecap:butt;stroke-linejoin:miter;stroke-opacity:1" id="path848" d="m 19.78,1113.4497 -4.25,4.24 -2.12,-2.12 -1.41,1.41 3.53,3.54 5.66,-5.66 z"/></g></svg>