<svg xmlns="http://www.w3.org/2000/svg" id="svg3616" width="108" height="108" version="1.1" viewBox="0 0 108 108"><defs id="defs3610"><marker id="TriangleInS" orient="auto" refX="0" refY="0" style="overflow:visible"><path id="path4462" d="M 5.77,0.0 L -2.88,5.0 L -2.88,-5.0 L 5.77,0.0 z" transform="scale(-0.2)" style="fill-rule:evenodd;stroke:#fff;stroke-width:1pt;stroke-opacity:1;fill:#fff;fill-opacity:1"/></marker><marker id="TriangleOutS" orient="auto" refX="0" refY="0" style="overflow:visible"><path id="path4471" d="M 5.77,0.0 L -2.88,5.0 L -2.88,-5.0 L 5.77,0.0 z" transform="scale(0.2)" style="fill-rule:evenodd;stroke:#fff;stroke-width:1pt;stroke-opacity:1;fill:#fff;fill-opacity:1"/></marker><marker id="Arrow2Send" orient="auto" refX="0" refY="0" style="overflow:visible"><path id="path4356" d="M 8.7185878,4.0337352 L -2.2072895,0.016013256 L 8.7185884,-4.0017078 C 6.9730900,-1.6296469 6.9831476,1.6157441 8.7185878,4.0337352 z" transform="scale(0.3) rotate(180) translate(-2.3,0)" style="fill-rule:evenodd;stroke-width:.625;stroke-linejoin:round;stroke:#fff;stroke-opacity:1;fill:#fff;fill-opacity:1"/></marker><marker id="Arrow2Sstart" orient="auto" refX="0" refY="0" style="overflow:visible"><path id="path4353" d="M 8.7185878,4.0337352 L -2.2072895,0.016013256 L 8.7185884,-4.0017078 C 6.9730900,-1.6296469 6.9831476,1.6157441 8.7185878,4.0337352 z" transform="scale(0.3) translate(-2.3,0)" style="fill-rule:evenodd;stroke-width:.625;stroke-linejoin:round;stroke:#fff;stroke-opacity:1;fill:#fff;fill-opacity:1"/></marker><marker id="Arrow1Send" orient="auto" refX="0" refY="0" style="overflow:visible"><path id="path4338" d="M 0.0,0.0 L 5.0,-5.0 L -12.5,0.0 L 5.0,5.0 L 0.0,0.0 z" transform="scale(0.2) rotate(180) translate(6,0)" style="fill-rule:evenodd;stroke:#fff;stroke-width:1pt;stroke-opacity:1;fill:#fff;fill-opacity:1"/></marker><filter style="color-interpolation-filters:sRGB" id="filter4304" width="3" height="3" x="-.5" y="-.5"><feFlood id="feFlood4294" flood-color="#000" flood-opacity="1" result="flood"/><feComposite id="feComposite4296" in="flood" in2="SourceGraphic" operator="in" result="composite1"/><feGaussianBlur id="feGaussianBlur4298" in="composite1" result="blur" stdDeviation="4"/><feOffset id="feOffset4300" dx="0" dy="4" result="offset"/><feComposite id="feComposite4302" in="SourceGraphic" in2="offset" operator="over" result="composite2"/></filter><clipPath id="clipPath4317" clipPathUnits="userSpaceOnUse"><circle id="circle4319" cx="54" cy="54" r="26" style="color:#000;clip-rule:nonzero;display:inline;overflow:visible;visibility:visible;opacity:1;isolation:auto;mix-blend-mode:normal;color-interpolation:sRGB;color-interpolation-filters:linearRGB;solid-color:#000;solid-opacity:1;vector-effect:none;fill:#dd3c3c;fill-opacity:1;fill-rule:evenodd;stroke:#120000;stroke-width:0;stroke-linecap:butt;stroke-linejoin:bevel;stroke-miterlimit:4;stroke-dasharray:none;stroke-dashoffset:0;stroke-opacity:1;marker:none;color-rendering:auto;image-rendering:auto;shape-rendering:auto;text-rendering:auto;enable-background:accumulate"/></clipPath></defs><metadata id="metadata3613"/><g id="layer4" style="display:inline"><rect style="color:#000;clip-rule:nonzero;display:inline;overflow:visible;visibility:visible;opacity:1;isolation:auto;mix-blend-mode:normal;color-interpolation:sRGB;color-interpolation-filters:linearRGB;solid-color:#000;solid-opacity:1;vector-effect:none;fill:#dd3c3c;fill-opacity:1;fill-rule:evenodd;stroke:#120000;stroke-width:0;stroke-linecap:butt;stroke-linejoin:bevel;stroke-miterlimit:4;stroke-dasharray:none;stroke-dashoffset:0;stroke-opacity:1;marker:none;color-rendering:auto;image-rendering:auto;shape-rendering:auto;text-rendering:auto;enable-background:accumulate" id="rect920" width="108" height="108" x="0" y="0"/><path id="path4-8" d="m 55.086188,50.936397 c -6.322166,-1.643206 -8.355289,-3.342116 -8.355289,-5.987957 0,-3.035755 2.812949,-5.152429 7.51976,-5.152429 4.95747,0 6.795634,2.367333 6.96274,5.848703 h 6.155062 C 67.173512,40.854348 64.249155,36.453896 58.428303,35.033497 v -6.09936 h -8.355288 v 6.015807 c -5.403086,1.169741 -9.747836,4.678962 -9.747836,10.054198 0,6.433572 5.319533,9.636431 13.089951,11.502447 6.96274,1.671058 8.355288,4.121942 8.355288,6.712081 0,1.921718 -1.364695,4.985324 -7.519759,4.985324 -5.737296,0 -7.993225,-2.562289 -8.299585,-5.848702 h -6.127212 c 0.334212,6.09936 4.901768,9.525029 10.249153,10.666916 v 6.043658 h 8.355288 V 73.07791 c 5.430937,-1.030484 9.747838,-4.177644 9.747838,-9.887089 0,-7.909675 -6.767784,-10.611217 -13.089953,-12.254424 z" style="fill:#fff;fill-opacity:1;stroke:none;stroke-width:1;stroke-opacity:1"/><circle style="color:#000;clip-rule:nonzero;display:inline;overflow:visible;visibility:visible;opacity:0;isolation:auto;mix-blend-mode:normal;color-interpolation:sRGB;color-interpolation-filters:linearRGB;solid-color:#000;solid-opacity:1;vector-effect:none;fill:none;fill-opacity:1;fill-rule:evenodd;stroke:#666;stroke-width:.2;stroke-linecap:butt;stroke-linejoin:bevel;stroke-miterlimit:4;stroke-dasharray:none;stroke-dashoffset:0;stroke-opacity:1;marker:none;color-rendering:auto;image-rendering:auto;shape-rendering:auto;text-rendering:auto;enable-background:accumulate" id="path940" cx="54" cy="54" r="33"/></g></svg>